<?xml version="1.0" encoding="UTF-8"?>
<!DOCTYPE svg PUBLIC "-//W3C//DTD SVG 1.1//EN" "http://www.w3.org/Graphics/SVG/1.1/DTD/svg11.dtd">
<!-- Creator: CorelDRAW X6 -->
<svg xmlns="http://www.w3.org/2000/svg" xml:space="preserve" width="3508px" height="1299px" version="1.1" style="shape-rendering:geometricPrecision; text-rendering:geometricPrecision; image-rendering:optimizeQuality; fill-rule:evenodd; clip-rule:evenodd"
viewBox="0 0 3508 1299"
 xmlns:xlink="http://www.w3.org/1999/xlink">
 <defs>
  <style type="text/css">
   <![CDATA[
    .fil1 {fill:#006699}
    .fil0 {fill:#006699;fill-rule:nonzero}
   ]]>
  </style>
 </defs>
 <g id="Layer_x0020_1">
  <metadata id="CorelCorpID_0Corel-Layer"/>
  <g id="_706154032">
   <path class="fil0" d="M1376 545l0 -144 402 0c2,28 12,296 -257,402 -43,17 -193,76 -380,-49 -15,-10 -163,-105 -167,-327 -4,-212 180,-401 401,-401 150,0 275,75 353,204 -68,35 -71,38 -147,76 -44,-74 -118,-114 -205,-114 -130,0 -235,104 -235,235 0,132 105,238 235,238 87,0 167,-47 208,-121l-208 0z"/>
   <polygon class="fil0" points="2048,510 2048,680 2499,680 2499,828 1878,828 1878,26 2461,26 2461,174 2048,174 2048,354 2413,354 2413,510 "/>
   <path class="fil1" d="M177 708c60,31 128,54 219,52 349,-4 432,-424 231,-548 -41,-26 -91,-33 -139,-17 -61,20 -69,105 -2,130 -37,-2 -57,-27 -66,-54 -11,-38 -1,-84 27,-114 60,-67 175,-71 265,-23 181,97 202,371 88,524 -111,163 -382,266 -623,51z"/>
   <path class="fil1" d="M187 141c-58,108 -58,217 31,308 88,90 226,87 309,28 63,-44 87,-127 49,-196 -55,-80 -146,-34 -100,27 -11,-4 -18,-13 -22,-25 -14,-47 50,-98 125,-46 167,116 67,415 -158,451 -333,42 -474,-293 -234,-547z"/>
   <path class="fil1" d="M662 76c-217,-56 -304,76 -298,182 2,73 71,128 126,103 23,-10 40,-32 40,-57 1,-37 -42,-49 -56,-21 14,-59 110,-13 84,74 -49,167 -395,110 -356,-150 31,-207 333,-217 460,-130z"/>
   <path class="fil0" d="M3374 25c19,0 35,8 47,20 12,12 20,29 20,47 0,19 -8,35 -20,47 -12,12 -29,20 -47,20 -19,0 -35,-8 -47,-20 -12,-12 -20,-29 -20,-47 0,-19 8,-35 20,-47 12,-12 29,-20 47,-20zm38 30c-10,-10 -23,-16 -38,-16 -15,0 -28,6 -38,16 -10,10 -16,23 -16,38 0,15 6,28 16,38 10,10 23,16 38,16 15,0 28,-6 38,-16 10,-10 16,-23 16,-38 0,-15 -6,-28 -16,-38z"/>
   <path class="fil1" d="M3361 86l9 0c6,0 9,0 11,-1 1,0 3,-1 3,-3 1,-1 1,-3 1,-5 0,-2 -1,-4 -2,-5 -1,-1 -3,-2 -5,-2 -1,0 -4,0 -9,0l-10 0 0 15zm-12 35l0 -60 26 0c6,0 11,1 14,2 3,1 5,3 7,6 2,3 3,6 3,10 0,5 -1,8 -4,11 -3,3 -7,5 -12,6 3,2 5,3 6,5 2,2 4,5 7,10l7 12 -15 0 -9 -13c-3,-5 -5,-8 -6,-9 -1,-1 -2,-2 -4,-3 -1,0 -3,-1 -6,-1l-2 0 0 25 -12 0z"/>
   <polygon class="fil0" points="97,1203 67,1203 67,990 97,990 "/>
   <path class="fil0" d="M173 1060c0,4 1,8 1,12 0,5 0,8 0,11l1 0c2,-4 4,-7 7,-11 3,-3 7,-6 11,-9 4,-3 8,-4 13,-6 5,-1 10,-2 15,-2 9,0 17,2 24,5 7,3 12,7 17,12 4,5 8,11 10,18 2,7 3,15 3,23l0 88 -28 0 0 -79c0,-6 0,-11 -1,-17 -1,-5 -3,-10 -5,-14 -2,-4 -6,-7 -10,-10 -4,-2 -10,-4 -16,-4 -11,0 -20,4 -28,13 -7,9 -11,20 -11,34l0 76 -28 0 0 -112c0,-4 0,-9 0,-15 0,-6 -1,-11 -1,-16l27 0z"/>
   <path class="fil0" d="M399 1096c-3,-5 -8,-9 -14,-13 -6,-3 -12,-5 -20,-5 -3,0 -6,0 -10,1 -3,1 -6,2 -9,3 -3,2 -5,3 -6,6 -2,2 -2,5 -2,9 0,6 3,10 8,13 5,3 14,6 24,8 7,2 13,4 19,6 6,2 11,5 15,8 4,3 8,7 10,12 2,5 4,10 4,16 0,8 -2,16 -5,21 -3,6 -7,11 -13,14 -5,4 -11,6 -18,8 -7,2 -14,2 -21,2 -11,0 -21,-2 -32,-6 -10,-4 -19,-11 -26,-19l20 -17c4,6 9,10 16,14 7,4 14,6 22,6 4,0 7,0 10,-1 3,-1 6,-2 9,-3 3,-2 5,-4 6,-6 2,-3 2,-6 2,-10 0,-7 -3,-12 -9,-15 -6,-3 -16,-6 -28,-9 -5,-1 -10,-3 -15,-4 -5,-2 -9,-4 -13,-7 -4,-3 -7,-7 -10,-11 -3,-5 -4,-10 -4,-17 0,-8 2,-14 5,-20 3,-6 7,-10 12,-14 5,-4 11,-6 17,-8 6,-2 13,-3 20,-3 10,0 20,2 30,6 10,4 17,10 22,17l-20 17z"/>
   <path class="fil0" d="M485 1203l-28 0 0 -143 28 0 0 143zm5 -194c0,5 -2,10 -6,13 -4,3 -8,5 -13,5 -5,0 -10,-2 -13,-5 -4,-4 -5,-8 -5,-13 0,-5 2,-10 5,-13 4,-4 8,-5 13,-5 5,0 10,2 13,5 4,4 6,8 6,13z"/>
   <path class="fil0" d="M553 1130c0,7 1,13 3,19 2,6 5,11 9,16 4,5 9,8 15,11 6,3 12,4 20,4 7,0 14,-1 20,-4 6,-3 11,-6 15,-11 4,-5 7,-10 10,-16 2,-6 3,-13 3,-20 0,-7 -1,-13 -3,-19 -2,-6 -6,-11 -10,-16 -4,-5 -9,-8 -15,-11 -6,-3 -13,-4 -20,-4 -7,0 -14,1 -20,4 -6,3 -11,6 -15,11 -4,5 -7,10 -9,16 -2,6 -3,13 -3,19zm-8 97c6,7 14,13 23,17 9,4 19,6 29,6 9,0 17,-1 24,-4 6,-3 12,-6 15,-11 4,-5 7,-10 8,-17 2,-6 3,-13 3,-21l0 -18 -1 0c-5,8 -12,14 -21,18 -9,4 -19,6 -29,6 -11,0 -21,-2 -30,-6 -9,-4 -16,-9 -23,-16 -6,-7 -11,-14 -14,-23 -3,-9 -5,-18 -5,-29 0,-10 2,-20 5,-29 3,-9 8,-17 14,-24 6,-7 14,-12 23,-16 9,-4 19,-6 29,-6 10,0 20,2 29,7 9,4 17,11 22,20l1 0 0 -23 27 0 0 135c0,10 -1,20 -4,30 -3,10 -7,18 -13,25 -6,7 -14,13 -24,18 -10,4 -22,7 -37,7 -12,0 -25,-2 -37,-7 -13,-5 -23,-11 -32,-19l18 -22z"/>
   <path class="fil0" d="M753 1082c3,-7 9,-13 17,-18 8,-5 17,-8 28,-8 9,0 17,2 24,5 7,3 12,7 17,12 4,5 8,11 10,18 2,7 3,15 3,23l0 88 -28 0 0 -79c0,-6 0,-11 -1,-17 -1,-5 -3,-10 -5,-14 -2,-4 -6,-7 -10,-10 -4,-2 -9,-4 -16,-4 -11,0 -20,4 -28,13 -7,9 -11,20 -11,34l0 76 -28 0 0 -227 28 0 0 106 1 0z"/>
   <path class="fil0" d="M969 1084l-38 0 0 74c0,9 2,15 5,18 3,4 8,6 15,6 3,0 5,0 8,-1 3,-1 6,-1 8,-2l1 23c-3,1 -7,2 -11,3 -4,1 -8,1 -13,1 -13,0 -24,-4 -31,-11 -7,-7 -11,-19 -11,-33l0 -77 -27 0 0 -23 27 0 0 -41 28 0 0 41 38 0 0 23z"/>
   <path class="fil0" d="M1105 1177l37 0c13,0 25,-2 36,-5 11,-4 20,-9 28,-16 8,-7 14,-15 18,-25 4,-10 7,-21 7,-34 0,-13 -2,-25 -7,-35 -4,-10 -11,-18 -18,-25 -8,-7 -17,-12 -28,-15 -11,-4 -23,-5 -36,-5l-37 0 0 161zm-30 -187l73 0c14,0 27,2 41,6 14,4 26,10 37,19 11,9 20,20 27,33 7,13 10,30 10,48 0,18 -3,34 -10,47 -7,13 -16,24 -27,33 -11,9 -23,15 -37,20 -14,4 -27,6 -41,6l-73 0 0 -213z"/>
   <path class="fil0" d="M1302 1076c0,-6 -1,-11 -1,-16l27 0c0,4 1,8 1,12 0,5 0,9 0,12l1 0c4,-8 10,-15 18,-20 8,-5 16,-8 26,-8 4,0 8,0 11,1l-1 26c-4,-1 -8,-2 -13,-2 -7,0 -13,1 -18,4 -5,3 -9,6 -12,10 -3,4 -6,9 -7,15 -2,6 -2,11 -2,17l0 75 -28 0 0 -112c0,-4 0,-9 0,-15z"/>
   <path class="fil0" d="M1440 1203l-28 0 0 -143 28 0 0 143zm5 -194c0,5 -2,10 -6,13 -4,3 -8,5 -13,5 -5,0 -10,-2 -13,-5 -4,-4 -5,-8 -5,-13 0,-5 2,-10 5,-13 4,-4 8,-5 13,-5 5,0 10,2 13,5 4,4 6,8 6,13z"/>
   <polygon class="fil0" points="1556,1203 1526,1203 1468,1060 1499,1060 1541,1173 1541,1173 1583,1060 1614,1060 "/>
   <path class="fil0" d="M1745 1119c0,-6 -1,-11 -3,-16 -2,-5 -4,-9 -8,-13 -3,-4 -7,-6 -12,-9 -5,-2 -11,-3 -17,-3 -6,0 -12,1 -17,3 -5,2 -10,5 -14,9 -4,4 -7,8 -10,13 -3,5 -4,10 -4,16l85 0zm29 11l0 5c0,2 0,3 0,5l-113 0c0,6 2,12 4,17 3,5 6,10 10,14 4,4 9,7 15,9 6,2 11,3 18,3 10,0 18,-2 25,-6 7,-4 13,-9 17,-15l20 16c-8,10 -17,18 -27,22 -10,5 -22,7 -34,7 -11,0 -21,-2 -30,-5 -9,-4 -17,-9 -24,-15 -7,-7 -12,-14 -16,-24 -4,-9 -6,-19 -6,-31 0,-11 2,-21 6,-31 4,-9 9,-17 16,-24 7,-7 14,-12 24,-15 9,-4 19,-6 29,-6 10,0 20,2 28,5 9,3 16,8 22,15 6,6 10,14 14,23 3,9 5,19 5,31z"/>
   <path class="fil0" d="M1890 1096c-3,-5 -8,-9 -14,-13 -6,-3 -12,-5 -20,-5 -3,0 -6,0 -10,1 -3,1 -6,2 -9,3 -3,2 -5,3 -6,6 -2,2 -2,5 -2,9 0,6 3,10 8,13 5,3 14,6 24,8 7,2 13,4 19,6 6,2 11,5 15,8 4,3 8,7 10,12 2,5 4,10 4,16 0,8 -2,16 -5,21 -3,6 -7,11 -13,14 -5,4 -11,6 -18,8 -7,2 -14,2 -21,2 -11,0 -21,-2 -32,-6 -10,-4 -19,-11 -26,-19l20 -17c4,6 9,10 16,14 7,4 14,6 22,6 4,0 7,0 10,-1 3,-1 6,-2 9,-3 3,-2 5,-4 6,-6 2,-3 2,-6 2,-10 0,-7 -3,-12 -9,-15 -6,-3 -16,-6 -28,-9 -5,-1 -10,-3 -15,-4 -5,-2 -9,-4 -13,-7 -4,-3 -7,-7 -10,-11 -3,-5 -4,-10 -4,-17 0,-8 2,-14 5,-20 3,-6 7,-10 12,-14 5,-4 11,-6 17,-8 6,-2 13,-3 20,-3 10,0 20,2 30,6 10,4 17,10 22,17l-20 17z"/>
   <polygon class="fil0" points="2053,1203 2023,1203 2023,990 2053,990 "/>
   <path class="fil0" d="M2129 1060c0,4 1,8 1,12 0,5 0,8 0,11l1 0c2,-4 4,-7 7,-11 3,-3 7,-6 11,-9 4,-3 8,-4 13,-6 5,-1 10,-2 15,-2 9,0 17,2 24,5 7,3 12,7 17,12 4,5 8,11 10,18 2,7 3,15 3,23l0 88 -28 0 0 -79c0,-6 0,-11 -1,-17 -1,-5 -3,-10 -5,-14 -2,-4 -6,-7 -10,-10 -4,-2 -10,-4 -16,-4 -11,0 -20,4 -28,13 -7,9 -11,20 -11,34l0 76 -28 0 0 -112c0,-4 0,-9 0,-15 0,-6 -1,-11 -1,-16l27 0z"/>
   <path class="fil0" d="M2304 1060c0,4 1,8 1,12 0,5 0,8 0,11l1 0c2,-4 4,-7 7,-11 3,-3 7,-6 11,-9 4,-3 8,-4 13,-6 5,-1 10,-2 15,-2 9,0 17,2 24,5 7,3 12,7 17,12 4,5 8,11 10,18 2,7 3,15 3,23l0 88 -28 0 0 -79c0,-6 0,-11 -1,-17 -1,-5 -3,-10 -5,-14 -2,-4 -6,-7 -10,-10 -4,-2 -10,-4 -16,-4 -11,0 -20,4 -28,13 -7,9 -11,20 -11,34l0 76 -28 0 0 -112c0,-4 0,-9 0,-15 0,-6 -1,-11 -1,-16l27 0z"/>
   <path class="fil0" d="M2568 1132c0,-7 -1,-13 -3,-19 -2,-6 -5,-12 -9,-16 -4,-5 -9,-8 -15,-11 -6,-3 -13,-4 -20,-4 -8,0 -14,1 -20,4 -6,3 -11,7 -15,11 -4,5 -7,10 -9,16 -2,6 -3,13 -3,19 0,7 1,13 3,19 2,6 5,12 9,16 4,5 9,9 15,11 6,3 13,4 20,4 8,0 14,-1 20,-4 6,-3 11,-7 15,-11 4,-5 7,-10 9,-16 2,-6 3,-13 3,-19zm29 0c0,11 -2,21 -6,30 -4,9 -9,17 -16,24 -7,7 -15,12 -25,16 -9,4 -20,6 -30,6 -11,0 -21,-2 -30,-6 -9,-4 -18,-9 -24,-16 -7,-7 -12,-15 -16,-24 -4,-9 -6,-19 -6,-30 0,-11 2,-21 6,-30 4,-9 9,-17 16,-24 7,-7 15,-12 24,-15 9,-4 20,-6 30,-6 11,0 21,2 30,6 9,4 18,9 25,15 7,7 12,14 16,24 4,9 6,19 6,30z"/>
   <polygon class="fil0" points="2704,1203 2673,1203 2615,1060 2647,1060 2688,1173 2689,1173 2731,1060 2761,1060 "/>
   <path class="fil0" d="M2870 1135c-7,0 -14,0 -22,1 -8,1 -14,2 -20,4 -6,2 -11,5 -15,8 -4,4 -6,8 -6,14 0,4 1,8 3,11 2,3 4,5 7,7 3,2 6,3 9,4 3,1 7,1 11,1 13,0 23,-4 31,-12 7,-8 11,-18 11,-30l0 -8 -7 0zm7 -24c0,-11 -3,-18 -10,-24 -6,-5 -15,-8 -26,-8 -8,0 -16,2 -23,5 -7,3 -13,7 -18,12l-15 -18c7,-7 16,-12 26,-16 10,-4 21,-6 33,-6 10,0 19,1 27,4 8,3 14,7 18,12 5,5 8,11 11,18 2,7 4,14 4,22l0 62c0,5 0,10 0,15 0,5 1,10 2,13l-26 0c-2,-7 -2,-14 -2,-20l-1 0c-5,8 -12,14 -20,18 -8,4 -17,6 -28,6 -6,0 -11,-1 -18,-2 -6,-2 -12,-4 -17,-7 -5,-3 -9,-8 -12,-14 -3,-6 -5,-13 -5,-21 0,-11 3,-19 9,-26 6,-6 13,-11 23,-14 9,-3 20,-5 32,-6 12,-1 24,-2 36,-2l0 -4z"/>
   <path class="fil0" d="M3018 1084l-38 0 0 74c0,9 2,15 5,18 3,4 8,6 15,6 3,0 5,0 8,-1 3,-1 6,-1 8,-2l1 23c-3,1 -7,2 -11,3 -4,1 -8,1 -13,1 -13,0 -24,-4 -31,-11 -7,-7 -11,-19 -11,-33l0 -77 -27 0 0 -23 27 0 0 -41 28 0 0 41 38 0 0 23z"/>
   <path class="fil0" d="M3076 1203l-28 0 0 -143 28 0 0 143zm5 -194c0,5 -2,10 -6,13 -4,3 -8,5 -13,5 -5,0 -10,-2 -13,-5 -4,-4 -5,-8 -5,-13 0,-5 2,-10 5,-13 4,-4 8,-5 13,-5 5,0 10,2 13,5 4,4 6,8 6,13z"/>
   <path class="fil0" d="M3240 1132c0,-7 -1,-13 -3,-19 -2,-6 -5,-12 -9,-16 -4,-5 -9,-8 -15,-11 -6,-3 -13,-4 -20,-4 -8,0 -14,1 -20,4 -6,3 -11,7 -15,11 -4,5 -7,10 -9,16 -2,6 -3,13 -3,19 0,7 1,13 3,19 2,6 5,12 9,16 4,5 9,9 15,11 6,3 13,4 20,4 8,0 14,-1 20,-4 6,-3 11,-7 15,-11 4,-5 7,-10 9,-16 2,-6 3,-13 3,-19zm29 0c0,11 -2,21 -6,30 -4,9 -9,17 -16,24 -7,7 -15,12 -25,16 -9,4 -20,6 -30,6 -11,0 -21,-2 -30,-6 -9,-4 -18,-9 -24,-16 -7,-7 -12,-15 -16,-24 -4,-9 -6,-19 -6,-30 0,-11 2,-21 6,-30 4,-9 9,-17 16,-24 7,-7 15,-12 24,-15 9,-4 20,-6 30,-6 11,0 21,2 30,6 9,4 18,9 25,15 7,7 12,14 16,24 4,9 6,19 6,30z"/>
   <path class="fil0" d="M3334 1060c0,4 1,8 1,12 0,5 0,8 0,11l1 0c2,-4 4,-7 7,-11 3,-3 7,-6 11,-9 4,-3 8,-4 13,-6 5,-1 10,-2 15,-2 9,0 17,2 24,5 7,3 12,7 17,12 4,5 8,11 10,18 2,7 3,15 3,23l0 88 -28 0 0 -79c0,-6 0,-11 -1,-17 -1,-5 -3,-10 -5,-14 -2,-4 -6,-7 -10,-10 -4,-2 -10,-4 -16,-4 -11,0 -20,4 -28,13 -7,9 -11,20 -11,34l0 76 -28 0 0 -112c0,-4 0,-9 0,-15 0,-6 -1,-11 -1,-16l27 0z"/>
   <path class="fil0" d="M2781 403l137 0c81,0 155,-18 155,-120 0,-102 -74,-120 -155,-120l-137 0 0 241zm-177 -378l362 0c201,0 278,127 278,258 0,131 -77,258 -278,258l-186 0 0 288 -177 0 0 -804z"/>
  </g>
 </g>
</svg>
